<?xml version="1.0" standalone="no"?>
<!DOCTYPE svg PUBLIC "-//W3C//DTD SVG 20010904//EN"
 "http://www.w3.org/TR/2001/REC-SVG-20010904/DTD/svg10.dtd">
<svg version="1.0" xmlns="http://www.w3.org/2000/svg"
 width="397.000000pt" height="397.000000pt" viewBox="0 0 397.000000 397.000000"
 preserveAspectRatio="xMidYMid meet">

<g transform="translate(0.000000,397.000000) scale(0.100000,-0.100000)"
fill="#000000" stroke="none">
<path d="M1837 3766 c-21 -8 -46 -21 -56 -30 -11 -10 -26 -13 -41 -9 -21 6
-23 4 -13 -9 16 -19 7 -28 -29 -28 -16 0 -33 -8 -40 -19 -11 -18 -12 -18 -52
0 -83 38 -154 16 -200 -63 -14 -24 -26 -59 -28 -78 -3 -39 -48 -117 -48 -84
-1 28 -68 -83 -81 -131 -25 -102 -82 -219 -118 -246 -17 -12 -33 -35 -36 -50
-4 -15 -18 -35 -31 -44 -14 -9 -30 -30 -36 -46 -6 -18 -17 -29 -29 -29 -26 0
-35 -27 -16 -48 15 -17 15 -27 2 -125 -6 -43 -5 -49 14 -54 17 -4 20 -11 16
-40 -2 -20 3 -51 11 -72 9 -20 22 -74 30 -121 9 -47 22 -98 30 -114 8 -17 17
-46 20 -67 6 -34 10 -37 45 -43 48 -8 62 -29 68 -108 1 -21 39 -58 58 -58 11
0 13 21 7 113 -9 156 8 291 47 376 30 66 30 66 26 24 -6 -49 1 -57 37 -43 18
6 24 14 19 26 -5 13 -2 15 15 10 15 -5 24 -1 31 12 6 12 26 22 51 26 23 4 51
13 64 21 18 12 31 13 79 3 59 -12 76 -28 32 -28 -14 0 -25 -4 -25 -10 0 -5 7
-10 16 -10 8 0 12 -4 9 -10 -3 -5 -21 -10 -38 -10 -30 1 -31 1 -13 15 23 18
10 19 -47 4 -48 -12 -130 -77 -109 -86 10 -4 9 -9 -4 -24 -22 -25 -13 -33 39
-34 23 0 45 -4 50 -10 4 -6 11 -4 17 6 6 11 21 16 42 14 26 -2 33 -7 34 -24 1
-14 -5 -21 -17 -21 -26 0 -33 -18 -9 -25 51 -16 166 22 180 60 5 14 16 25 25
25 13 0 13 -3 3 -20 -7 -11 -16 -20 -20 -20 -5 0 -8 -5 -8 -11 0 -12 43 -1 48
12 2 5 12 4 23 -1 16 -9 21 -4 40 31 23 46 23 125 -1 189 -7 19 -17 47 -22 61
-5 15 -21 32 -36 39 -15 7 -40 18 -57 25 -21 10 -63 13 -135 11 -58 -2 -107 1
-110 5 -10 14 -74 24 -66 11 4 -7 3 -12 -2 -12 -17 0 -21 64 -5 82 9 10 13 24
9 33 -4 12 -2 14 13 6 16 -9 17 -7 13 14 -2 15 0 25 7 25 9 0 9 6 0 22 -9 16
-9 23 0 26 6 2 11 11 11 19 0 14 3 13 22 -3 21 -18 21 -18 15 0 -5 13 4 34 33
71 44 57 60 68 86 58 9 -3 19 -1 23 6 6 9 19 9 55 1 58 -13 207 -2 241 18 9 6
76 13 127 14 19 1 35 -8 49 -26 11 -14 26 -26 32 -26 39 0 84 -23 100 -49 15
-25 15 -30 2 -35 -18 -7 -19 -29 -2 -57 10 -17 9 -22 -7 -35 -19 -14 -19 -15
7 -42 27 -28 27 -29 9 -45 -10 -9 -29 -17 -42 -17 -13 0 -20 -3 -16 -7 4 -4
-21 -13 -56 -20 -34 -7 -65 -18 -69 -25 -4 -7 -17 -24 -28 -37 -11 -13 -19
-27 -16 -31 3 -4 -7 -20 -21 -35 l-25 -27 3 -167 c3 -108 8 -174 16 -189 7
-12 15 -44 18 -70 l6 -47 -51 -34 c-46 -31 -55 -33 -103 -28 -42 5 -61 2 -95
-14 -38 -18 -42 -23 -32 -40 6 -11 20 -24 32 -29 12 -5 16 -9 9 -9 -7 -1 -10
-6 -7 -11 7 -11 -43 -57 -57 -53 -4 2 -26 -6 -49 -16 -23 -11 -48 -17 -54 -15
-7 3 -15 -2 -18 -10 -4 -9 -12 -16 -19 -16 -34 0 -58 -83 -37 -131 14 -34 12
-34 45 -12 24 15 28 15 57 0 35 -18 197 -32 197 -18 0 12 -31 25 -55 22 -11
-2 -17 0 -14 4 8 7 114 32 144 33 48 2 125 -10 125 -20 0 -6 -11 -8 -26 -5
-16 3 -28 0 -31 -9 -2 -7 -13 -11 -24 -9 -33 6 -6 -27 32 -39 34 -12 52 -36
25 -36 -9 0 -13 -6 -10 -14 8 -22 -10 -27 -96 -27 -44 0 -82 -4 -86 -10 -3 -5
-11 -6 -17 -2 -11 8 -23 8 -69 4 -12 -1 -18 -9 -18 -26 0 -14 4 -25 9 -25 5 0
12 -8 16 -17 3 -10 19 -34 35 -53 27 -32 29 -33 30 -12 0 14 -6 22 -17 22 -13
0 -14 3 -5 12 17 17 39 -6 54 -53 6 -22 16 -38 22 -36 6 2 16 -7 21 -20 l10
-25 37 36 c20 20 38 30 40 24 3 -8 18 -7 51 5 41 14 47 14 47 1 0 -9 -7 -14
-17 -12 -14 2 -18 -3 -16 -26 2 -23 -1 -27 -17 -23 -16 4 -18 1 -14 -22 5 -22
0 -31 -20 -45 -23 -15 -27 -15 -32 -1 -8 21 -21 19 -27 -5 -3 -12 -14 -20 -26
-20 -12 0 -31 -10 -43 -23 l-23 -22 -3 25 c-2 13 -11 29 -19 36 -9 6 -13 15
-10 21 4 6 1 18 -6 28 -15 20 -91 32 -102 16 -3 -6 -14 -11 -23 -11 -12 0 -13
3 -4 12 7 7 12 15 12 19 0 8 -40 0 -55 -11 -12 -9 -52 -7 -61 3 -16 16 -63 6
-79 -15 -16 -23 -16 -23 -30 -4 -12 16 -15 17 -15 4 0 -8 6 -21 14 -27 14 -12
26 -62 28 -114 1 -19 4 -24 9 -16 6 10 10 9 15 -6 18 -52 64 -138 64 -121 0
19 1 18 21 -3 12 -12 18 -25 15 -28 -5 -6 14 -20 54 -40 13 -6 54 -50 70 -74
5 -7 134 -27 215 -33 30 -3 101 -32 110 -45 2 -4 -6 -18 -18 -32 -12 -13 -41
-50 -64 -81 -33 -44 -51 -59 -77 -63 -28 -6 -33 -10 -31 -33 1 -15 5 -34 8
-42 4 -8 5 -24 4 -34 -2 -15 8 -22 48 -32 28 -8 58 -11 68 -8 9 3 17 2 17 -3
-1 -20 -29 -42 -63 -48 -21 -4 -40 -12 -44 -18 -4 -7 0 -8 12 -3 15 5 16 4 5
-9 -9 -11 -10 -19 -3 -26 16 -16 134 -17 166 -1 32 16 36 33 5 24 -14 -3 -19
-2 -14 6 4 7 16 12 27 12 13 0 19 7 19 21 0 12 7 27 16 33 8 6 16 20 18 30 1
9 9 22 17 27 11 7 11 9 -4 9 -17 0 -17 1 -2 16 9 9 13 24 10 34 -4 12 3 25 20
38 14 11 25 23 25 27 0 3 7 13 16 22 8 9 12 23 9 31 -6 16 41 66 79 83 12 5
36 18 55 30 18 11 36 17 40 13 3 -4 0 -9 -6 -11 -7 -3 -13 -14 -13 -24 0 -11
-5 -30 -12 -42 -10 -19 -9 -20 4 -9 14 11 16 7 16 -28 1 -33 -3 -40 -19 -40
-22 0 -27 -35 -6 -44 8 -3 7 -8 -6 -16 -14 -9 -17 -19 -12 -37 5 -20 3 -24 -9
-20 -16 7 -41 -26 -52 -68 -4 -15 -15 -30 -25 -32 -15 -4 -18 -13 -15 -44 2
-21 0 -39 -5 -39 -4 0 -10 -14 -14 -30 -4 -17 -11 -30 -16 -30 -5 0 -9 -5 -9
-11 0 -6 9 -8 20 -4 44 14 17 -33 -74 -132 -108 -118 -201 -232 -194 -239 11
-10 300 29 408 55 218 54 437 151 626 277 99 66 226 168 278 222 l28 30 -38
19 c-22 11 -82 43 -134 73 -52 29 -129 71 -172 93 -122 65 -122 64 -109 128 6
30 13 65 16 79 4 14 8 57 10 97 2 40 9 81 15 93 6 11 8 25 5 30 -3 5 -1 11 5
15 5 3 10 22 10 41 0 19 4 42 9 52 16 30 24 56 22 74 -1 9 3 19 9 23 7 4 7 12
0 26 -8 13 -7 19 0 19 18 0 40 63 28 78 -7 8 -7 12 0 12 5 0 12 16 14 35 2 19
0 35 -4 35 -5 0 -3 9 4 19 7 11 17 17 23 13 5 -3 4 1 -3 10 -7 8 -9 24 -5 33
4 13 3 16 -5 11 -8 -5 -10 -2 -6 8 3 9 11 16 16 16 6 0 8 14 5 34 -3 22 -1 37
6 40 9 4 9 7 1 11 -8 4 -6 17 7 41 10 20 15 41 13 49 -3 7 2 15 11 19 10 3 15
12 11 21 -3 8 -2 23 1 32 6 15 7 15 14 -3 5 -13 8 -7 8 23 1 23 6 43 11 45 9
3 19 49 22 108 1 8 6 18 11 22 7 4 7 11 -1 20 -12 15 -15 52 -10 104 3 23 0
31 -12 30 -15 -1 -16 7 -6 55 4 19 1 29 -10 33 -10 4 -14 14 -11 26 5 21 -12
70 -25 70 -5 0 -8 13 -8 28 0 16 -9 37 -20 47 -11 10 -20 22 -20 26 0 5 -11
25 -25 45 -16 23 -25 49 -24 68 1 17 -1 63 -4 101 -4 39 -9 102 -12 140 -4 49
-14 88 -35 130 -15 33 -32 72 -35 87 -7 27 -29 49 -117 116 -52 40 -241 127
-294 137 -28 4 -46 16 -63 38 -13 18 -46 50 -74 72 -27 22 -57 47 -66 55 -9 8
-45 28 -81 44 -36 16 -72 35 -81 42 -8 8 -20 14 -25 14 -5 0 -27 16 -49 35
-22 19 -43 35 -47 35 -16 0 -7 -16 27 -47 38 -35 44 -46 20 -37 -11 4 -13 2
-9 -9 10 -27 -12 -27 -51 0 -39 27 -35 44 5 23 12 -6 24 -10 26 -7 6 5 -155
85 -186 91 -14 3 -42 -1 -63 -8z m-282 -106 c8 -13 -5 -13 -25 0 -13 8 -13 10
2 10 9 0 20 -4 23 -10z m719 -525 c-7 -17 -30 -20 -39 -6 -4 8 9 15 37 20 4 0
5 -6 2 -14z m-894 -515 c0 -5 -4 -10 -10 -10 -5 0 -10 5 -10 10 0 6 5 10 10
10 6 0 10 -4 10 -10z m995 -20 c4 -6 -7 -10 -27 -9 -31 1 -32 1 -8 9 14 4 26
8 27 9 1 1 5 -3 8 -9z m-40 -40 c4 -6 -5 -10 -19 -10 -14 0 -26 5 -26 10 0 6
9 10 19 10 11 0 23 -4 26 -10z m-150 -50 c-3 -5 -11 -10 -16 -10 -6 0 -7 5 -4
10 3 6 11 10 16 10 6 0 7 -4 4 -10z m-320 -11 c11 -17 -1 -21 -15 -4 -8 9 -8
15 -2 15 6 0 14 -5 17 -11z m398 -37 c-8 -2 -22 -1 -31 3 -15 6 -14 9 8 27
l25 20 5 -23 c4 -16 1 -25 -7 -27z m-489 23 c4 -10 -1 -15 -14 -15 -13 0 -18
5 -14 15 4 8 10 15 14 15 4 0 10 -7 14 -15z m-84 -51 c0 -8 5 -14 11 -14 5 0
7 -4 4 -10 -13 -22 -34 -10 -33 20 1 29 18 33 18 4z m630 -4 c0 -18 -35 -29
-55 -17 -19 11 -19 11 5 18 37 10 50 10 50 -1z m213 -70 c8 -12 20 -18 30 -14
19 7 26 -20 16 -57 -4 -15 -3 -31 3 -37 6 -6 6 -23 -1 -48 -6 -22 -11 -54 -11
-71 0 -22 -5 -33 -15 -33 -9 0 -12 6 -8 16 4 12 2 15 -8 12 -9 -3 -13 -17 -11
-38 2 -28 0 -32 -17 -27 -14 3 -18 1 -14 -9 3 -8 -8 -28 -26 -44 -17 -17 -31
-37 -31 -46 0 -9 -7 -14 -17 -12 -12 2 -17 -3 -15 -14 2 -10 0 -18 -3 -18 -11
0 -95 88 -95 99 0 6 -4 11 -10 11 -5 0 -10 16 -10 34 0 23 -8 44 -25 62 -14
15 -25 33 -25 40 0 8 -5 14 -11 14 -6 0 -9 14 -7 33 1 17 -3 54 -11 80 -9 33
-11 51 -4 58 6 6 70 12 142 14 73 1 135 6 138 9 12 12 32 6 46 -14z m405 -273
c-3 -35 -13 -76 -21 -93 l-16 -29 -1 51 c0 28 -3 64 -6 80 -5 27 7 41 45 53 2
0 1 -27 -1 -62z m-998 -53 c0 -2 -7 -4 -15 -4 -8 0 -15 4 -15 10 0 5 7 7 15 4
8 -4 15 -8 15 -10z m490 -128 c0 -3 -4 -8 -10 -11 -5 -3 -10 -1 -10 4 0 6 5
11 10 11 6 0 10 -2 10 -4z m-362 -19 c40 10 23 -12 -24 -31 -37 -15 -51 -17
-65 -8 -13 8 -20 8 -25 1 -3 -6 -15 -9 -25 -6 -11 3 -19 1 -19 -5 0 -5 -5 -6
-12 -2 -21 13 41 56 74 52 16 -3 31 -1 34 4 3 4 13 4 23 -1 10 -6 27 -7 39 -4z
m752 -67 c0 -5 -5 -10 -11 -10 -5 0 -7 5 -4 10 3 6 8 10 11 10 2 0 4 -4 4 -10z
m-390 -30 c0 -5 -2 -10 -4 -10 -3 0 -8 5 -11 10 -3 6 -1 10 4 10 6 0 11 -4 11
-10z m-260 -20 c0 -5 -7 -10 -16 -10 -8 0 -12 5 -9 10 3 6 10 10 16 10 5 0 9
-4 9 -10z m247 -29 c-3 -17 -8 -35 -12 -40 -10 -16 -25 -13 -25 5 0 14 -2 15
-17 3 -15 -13 -15 -14 0 -17 25 -5 23 -58 -3 -65 -10 -3 -21 0 -23 7 -3 8 -8
7 -20 -2 -13 -11 -15 -10 -10 10 4 13 12 26 18 30 7 4 11 23 9 43 -2 28 1 35
16 35 10 0 22 5 25 10 3 6 15 10 26 10 17 0 19 -5 16 -29z m-317 -1 c0 -5 -4
-10 -10 -10 -5 0 -10 5 -10 10 0 6 5 10 10 10 6 0 10 -4 10 -10z m85 -290 c3
-5 2 -10 -4 -10 -5 0 -13 5 -16 10 -3 6 -2 10 4 10 5 0 13 -4 16 -10z m-28
-24 c0 -11 -5 -13 -19 -5 -10 5 -18 12 -18 14 0 3 8 5 18 5 10 0 19 -7 19 -14z
m-307 -91 c0 -14 -4 -25 -10 -25 -11 0 -14 33 -3 43 11 11 13 8 13 -18z"/>
<path d="M2365 2020 c4 -6 11 -8 16 -5 14 9 11 15 -7 15 -8 0 -12 -5 -9 -10z"/>
<path d="M2395 1980 c4 -6 11 -8 16 -5 14 9 11 15 -7 15 -8 0 -12 -5 -9 -10z"/>
<path d="M1940 1738 c0 -4 6 -8 14 -8 8 0 17 4 20 8 2 4 -4 8 -15 8 -10 0 -19
-4 -19 -8z"/>
<path d="M1303 1148 c-11 -13 -29 -36 -41 -53 -11 -16 -62 -73 -114 -126 -72
-74 -102 -98 -135 -108 -23 -6 -55 -25 -72 -41 -16 -17 -33 -30 -36 -30 -14 0
-335 -182 -335 -189 0 -5 26 -32 57 -62 222 -211 520 -379 818 -463 154 -43
495 -92 495 -71 0 16 -47 69 -165 185 -80 78 -148 157 -183 210 -32 47 -59 90
-61 95 -2 6 -34 74 -72 151 -92 190 -119 286 -119 420 0 57 -4 104 -8 104 -5
0 -18 -10 -29 -22z"/>
</g>
</svg>
